PathFileType	4	(X/Y/Z)	TVC_20_Cal_03_0_static_RCNL2025.trc
DataRate	CameraRate	NumFrames	NumMarkers	Units	OrigDataRate	OrigDataStartFrame	OrigNumFrames
100	100	10	27	mm	100	67	133
Frame#	Time	R_Shoulder			L_Shoulder			C7			J_Notch			R_Elbow			L_Elbow			R_Wrist			L_Wrist			R_Asis			L_Asis			R_Psis			L_Psis			Sacral			Thoracic			Sternum			R_Thigh_Lateral			R_Knee_Lateral			R_Shank_Lateral			R_Ankle_Lateral			R_Heel			R_Toe			L_Thigh_Lateral			L_Knee_Lateral			L_Shank_Lateral			L_Ankle_Lateral			L_Heel			L_Toe		
		X1	Y1	Z1	X2	Y2	Z2	X3	Y3	Z3	X4	Y4	Z4	X5	Y5	Z5	X6	Y6	Z6	X7	Y7	Z7	X8	Y8	Z8	X9	Y9	Z9	X10	Y10	Z10	X11	Y11	Z11	X12	Y12	Z12	X13	Y13	Z13	X14	Y14	Z14	X15	Y15	Z15	X16	Y16	Z16	X17	Y17	Z17	X18	Y18	Z18	X19	Y19	Z19	X20	Y20	Z20	X21	Y21	Z21	X22	Y22	Z22	X23	Y23	Z23	X24	Y24	Z24	X25	Y25	Z25	X26	Y26	Z26	X27	Y27	Z27
67	0.66000000	-226.319046	1427.480957	-40.563511	-268.949738	1432.920166	-387.923981	-274.679382	1469.893921	-196.034363	-149.715378	1344.673950	-213.974274	-243.406052	1154.578857	124.030518	-278.798065	1131.180176	-511.786621	-133.290932	924.503662	182.371155	-139.244896	915.741669	-561.210327	-193.627686	1010.824280	-60.913830	-176.952454	1019.094604	-341.147675	-340.395477	1013.853149	-162.852524	-348.256287	1007.110718	-251.401596	-344.325882	1010.481934	-207.127060	-375.786987	1238.174194	-209.360291	-134.151657	1201.005493	-218.181717	-242.075714	680.155212	2.906166	-262.735535	471.032623	-59.631874	-309.677185	313.018860	-16.296165	-316.232697	76.330711	-88.944786	-355.483063	52.412083	-143.470596	-167.538849	36.550278	-81.709816	-230.806976	653.919678	-412.623413	-241.754257	462.942810	-356.731903	-257.095093	316.626068	-398.162079	-280.173340	74.310150	-318.927063	-325.881744	62.465794	-276.880371	-138.113937	38.016113	-294.584534
68	0.67000000	-226.337158	1427.258423	-40.732201	-268.932922	1432.905029	-387.977325	-274.616638	1469.934204	-196.006454	-149.826691	1344.620483	-214.064163	-243.354080	1154.564697	123.991333	-278.849579	1131.179565	-511.795105	-133.239906	924.459869	182.350189	-139.313492	915.709625	-561.239594	-193.660706	1010.846252	-60.931015	-176.931885	1019.097900	-341.197998	-340.393463	1013.813721	-162.850525	-348.248810	1007.111694	-251.404877	-344.321136	1010.462708	-207.127701	-375.794739	1238.175659	-209.346191	-134.258759	1201.018433	-218.218674	-241.963303	679.875793	2.866186	-262.737518	471.023468	-59.633865	-309.658051	313.072388	-16.312344	-316.245422	76.333290	-88.947708	-355.424805	52.452011	-143.329926	-167.566040	36.657028	-81.736000	-230.861420	653.892700	-412.610077	-241.746078	462.932220	-356.738159	-257.151001	316.656952	-398.190582	-280.124603	74.288887	-318.884064	-325.974304	62.564434	-276.853180	-138.091263	38.065777	-294.548035
69	0.68000000	-226.297913	1427.177856	-40.774647	-269.038635	1432.905640	-387.945648	-274.669373	1469.879272	-196.068222	-149.850677	1344.647339	-214.092880	-243.266724	1154.531860	123.918182	-278.846405	1131.174438	-511.814789	-133.137753	924.485504	182.225853	-139.446869	915.685822	-561.191803	-193.600754	1010.750366	-60.968349	-176.928726	1019.098022	-341.204132	-340.455566	1013.823181	-162.929443	-348.278015	1007.247192	-251.356384	-344.366791	1010.535187	-207.142914	-375.833588	1238.158203	-209.436951	-134.286392	1200.985107	-218.241730	-242.113815	680.142578	2.928115	-262.760437	471.022644	-59.674603	-309.687469	313.048828	-16.283113	-316.277771	76.348076	-88.917709	-355.490509	52.478619	-143.372238	-167.532684	36.647682	-81.713158	-230.808884	653.947998	-412.608887	-241.749863	462.953003	-356.726746	-257.102264	316.643585	-398.184998	-280.135223	74.354622	-318.963593	-326.035492	62.597275	-276.931549	-138.031296	38.047909	-294.614288
70	0.69000000	-226.349060	1427.165894	-40.762135	-268.976288	1432.900635	-387.985352	-274.550140	1469.812012	-196.154648	-149.840363	1344.655151	-214.092712	-243.335648	1154.458252	123.856903	-278.872345	1131.164551	-511.867950	-133.149044	924.410553	182.188606	-139.473827	915.682556	-561.177490	-193.624268	1010.815674	-60.951485	-177.024002	1019.124451	-341.296783	-340.464813	1013.863220	-162.939941	-348.260071	1007.124329	-251.401855	-344.362442	1010.493774	-207.170898	-375.862823	1238.169556	-209.408951	-134.292953	1200.950195	-218.259766	-242.035110	679.891663	2.786922	-262.796234	471.025177	-59.696033	-309.696442	313.042816	-16.292538	-316.248413	76.307198	-88.937332	-355.492096	52.398834	-143.456970	-167.511810	36.656471	-81.693779	-230.893692	654.011230	-412.618500	-241.748962	462.938690	-356.751007	-257.177094	316.698547	-398.265106	-280.036072	74.183342	-319.061920	-325.985107	62.560547	-276.885345	-138.126678	38.083031	-294.574310
71	0.70000000	-226.300049	1427.144653	-40.800568	-269.045746	1432.877319	-388.042236	-274.561462	1469.776733	-196.121246	-149.836243	1344.638672	-214.090347	-243.357773	1154.428711	123.863594	-278.927368	1131.050537	-511.853607	-133.121292	924.360657	182.066780	-139.457935	915.622559	-561.162781	-193.716705	1010.823303	-60.920055	-177.074844	1019.071533	-341.241272	-340.540192	1013.856689	-162.897751	-348.233215	1007.079834	-251.438263	-344.386703	1010.468262	-207.168007	-375.833221	1238.202026	-209.454803	-134.235428	1200.920410	-218.309143	-242.167068	680.026306	2.810447	-262.843536	470.998718	-59.631744	-309.741272	313.012726	-16.362118	-316.227295	76.289040	-88.955513	-355.388184	52.350487	-143.523651	-167.560791	36.670784	-81.715073	-230.919052	653.928406	-412.622040	-241.752975	462.922394	-356.770874	-257.124969	316.618042	-398.235779	-280.116089	74.283089	-318.990814	-325.971344	62.549397	-276.857208	-138.211029	38.032646	-294.589661
72	0.71000000	-226.244904	1427.123047	-40.837868	-268.978333	1432.868774	-388.027161	-274.562988	1469.797241	-196.144867	-149.826508	1344.517212	-214.129456	-243.290436	1154.407104	123.797470	-278.917847	1131.082031	-511.868835	-133.124454	924.308289	181.919495	-139.554546	915.629089	-561.196777	-193.710876	1010.848877	-60.940506	-177.122665	1018.980774	-341.243622	-340.549591	1013.857422	-162.892029	-348.385559	1007.109680	-251.432449	-344.467575	1010.483551	-207.162239	-375.849396	1238.179565	-209.424469	-134.356613	1200.841797	-218.402756	-242.303177	680.296082	2.933584	-262.845703	471.024231	-59.655663	-309.763977	313.030823	-16.335806	-316.236053	76.282089	-88.970444	-355.458374	52.372540	-143.470734	-167.598587	36.555115	-81.744377	-230.886139	653.946960	-412.542267	-241.753021	462.931244	-356.777405	-257.183472	316.635040	-398.303833	-280.050201	74.174866	-319.047607	-325.951782	62.498562	-276.909485	-138.187347	38.030659	-294.559631
73	0.72000000	-226.210464	1427.099243	-40.862686	-268.970398	1432.878174	-388.051025	-274.557617	1469.857422	-196.145630	-149.818787	1344.490723	-214.153900	-243.226013	1154.375610	123.750381	-278.920319	1131.062744	-511.885010	-133.113525	924.266449	181.838524	-139.610149	915.612091	-561.178894	-193.646149	1010.779297	-61.048126	-177.111694	1018.967163	-341.262878	-340.543701	1013.874817	-162.892487	-348.402802	1007.045410	-251.377396	-344.473251	1010.460114	-207.134941	-375.828705	1238.215088	-209.457703	-134.410538	1200.775513	-218.347931	-242.131119	679.989014	2.758647	-262.854309	471.004761	-59.662617	-309.675537	313.057556	-16.326542	-316.247070	76.291000	-88.963531	-355.501740	52.351383	-143.447830	-167.506165	36.653942	-81.729897	-230.925110	653.914734	-412.587250	-241.745789	462.950317	-356.793060	-257.091980	316.656738	-398.249573	-280.007690	74.136497	-319.063843	-326.025146	62.565342	-276.937531	-138.092178	38.042137	-294.615906
74	0.73000000	-226.208374	1427.062500	-40.902065	-268.991425	1432.939575	-388.056335	-274.555511	1469.877319	-196.146927	-149.749878	1344.510864	-214.208405	-243.298233	1154.376709	123.687569	-279.037292	1131.098877	-511.816498	-133.109375	924.195007	181.769577	-139.697414	915.559387	-561.189240	-193.718369	1010.798645	-60.974827	-177.095459	1018.990479	-341.256531	-340.542847	1013.875122	-162.896103	-348.425781	1007.264404	-251.380371	-344.484314	1010.569763	-207.138237	-375.826019	1238.277710	-209.468765	-134.390289	1200.819946	-218.388779	-241.897812	679.861816	2.720116	-262.796234	471.018158	-59.643452	-309.657104	313.057220	-16.302046	-316.278412	76.246094	-88.691605	-355.500854	52.343830	-143.450119	-167.559479	36.686470	-81.705887	-230.893524	653.895996	-412.621307	-241.781982	462.924225	-356.753571	-257.157440	316.649170	-398.224762	-279.345856	73.662651	-318.883972	-325.838013	62.439457	-276.868378	-138.093765	38.062870	-294.622559
75	0.74000000	-226.187714	1427.096436	-40.926922	-268.999146	1432.933228	-388.076569	-274.546326	1469.771484	-196.167084	-149.744232	1344.441895	-214.280228	-243.256271	1154.355713	123.650597	-279.103271	1131.079834	-511.774353	-133.040974	924.192261	181.635002	-139.731312	915.627563	-561.276428	-193.737778	1010.825684	-61.007378	-177.117340	1018.981689	-341.247986	-340.542725	1013.872559	-162.899734	-348.400879	1007.075562	-251.376419	-344.471802	1010.474060	-207.138077	-375.802185	1238.328247	-209.454803	-134.513412	1200.778442	-218.438934	-241.856598	679.848206	2.729673	-262.746246	471.001617	-59.654484	-309.672089	313.070587	-16.288086	-316.364380	76.282707	-88.716866	-355.437653	52.322155	-143.461594	-167.554535	36.589790	-81.699638	-230.918350	653.944763	-412.636475	-241.800323	462.949768	-356.805939	-257.188995	316.615295	-398.331024	-279.942291	74.118935	-319.081482	-325.964996	62.542229	-276.855835	-138.080276	38.092461	-294.803955
76	0.75000000	-226.149094	1427.072388	-40.907452	-269.043518	1432.917236	-388.079437	-274.481720	1469.839966	-196.194992	-149.743576	1344.510742	-214.319077	-243.319687	1154.355103	123.587448	-279.095245	1131.067139	-511.856262	-133.076160	924.181061	181.539520	-139.748150	915.615387	-561.282318	-193.672928	1010.811584	-61.036770	-177.199051	1019.008728	-341.312469	-340.542664	1013.874268	-162.896622	-348.414062	1007.182739	-251.331726	-344.478363	1010.528503	-207.114174	-375.750488	1238.229858	-209.501892	-134.528275	1200.779419	-218.477905	-242.149567	680.115540	2.813515	-262.767181	471.036835	-59.624889	-309.696960	313.016724	-16.282658	-316.240875	76.324326	-88.846405	-355.426910	52.507969	-143.314865	-167.565186	36.661083	-81.715546	-230.934372	653.896606	-412.613892	-241.843216	462.944977	-356.818604	-257.191071	316.660431	-398.258698	-280.067902	74.151451	-319.046448	-325.856689	62.441483	-276.832947	-138.083496	38.047119	-294.671112
